<?xml version="1.0" encoding="utf-8"?>
<!-- Generator: Adobe Illustrator 17.0.0, SVG Export Plug-In . SVG Version: 6.00 Build 0)  -->
<!DOCTYPE svg PUBLIC "-//W3C//DTD SVG 1.1//EN" "http://www.w3.org/Graphics/SVG/1.1/DTD/svg11.dtd">
<svg version="1.1" id="Layer_1" xmlns="http://www.w3.org/2000/svg" xmlns:xlink="http://www.w3.org/1999/xlink" x="0px" y="0px"
	 width="50px" height="50px" viewBox="0 0 50 50" enable-background="new 0 0 50 50" xml:space="preserve">
<circle fill="#909399" cx="25" cy="25" r="24.958"/>
<g>
	<path fill="#FFFFFF" d="M30.363,36.203c0.036,0.163-0.124,0.243-0.237,0.321c-1.236,0.856-2.469,1.717-3.746,2.512
		c-0.799,0.497-1.633,0.929-2.449,1.396c-0.849,0.486-1.708,0.635-2.528-0.038c-0.72-0.591-0.963-1.407-0.9-2.304
		c0.067-0.94,0.349-1.845,0.553-2.762c0.561-2.511,1.212-5,1.829-7.497c0.254-1.026,0.488-2.057,0.725-3.087
		c0.031-0.136,0.04-0.28,0.037-0.42c-0.016-0.591-0.379-0.84-0.948-0.674c-0.825,0.242-1.528,0.716-2.238,1.175
		c-0.265,0.171-0.527,0.349-0.768,0.56c-0.311,0.272-0.56,0.224-0.793-0.114c-0.301-0.435-0.279-0.609,0.146-0.929
		c1.698-1.28,3.353-2.618,5.122-3.8c0.954-0.637,1.909-1.285,3.053-1.576c0.948-0.241,1.643,0.269,1.884,1.209
		c0.08,0.311,0.083,0.627,0.085,0.946c-0.017,1.022-0.305,1.995-0.563,2.969c-0.758,2.861-1.562,5.71-2.32,8.572
		c-0.31,1.169-0.556,2.354-0.813,3.537c-0.113,0.517,0.274,0.964,0.807,0.96c0.386-0.004,0.731-0.157,1.06-0.347
		c0.642-0.372,1.226-0.828,1.829-1.257c0.209-0.148,0.444-0.351,0.703-0.19C30.186,35.546,30.291,35.881,30.363,36.203z"/>
	<path fill="#FFFFFF" d="M25.908,12.179c0.104-1.116,0.606-2.198,1.869-2.797c1.379-0.653,3.189,0.112,3.483,1.844
		c0.327,1.927-1.276,3.643-2.96,3.659C26.912,14.897,25.892,13.825,25.908,12.179z"/>
</g>
</svg>
