<?xml version="1.0" encoding="utf-8"?>
<!-- Generator: Adobe Illustrator 17.0.0, SVG Export Plug-In . SVG Version: 6.00 Build 0)  -->
<!DOCTYPE svg PUBLIC "-//W3C//DTD SVG 1.1//EN" "http://www.w3.org/Graphics/SVG/1.1/DTD/svg11.dtd">
<svg version="1.1" id="Layer_1" xmlns="http://www.w3.org/2000/svg" xmlns:xlink="http://www.w3.org/1999/xlink" x="0px" y="0px"
	 width="50px" height="50px" viewBox="0 0 50 50" enable-background="new 0 0 50 50" xml:space="preserve">
<circle fill="#E6A23C" cx="24.994" cy="25" r="24.958"/>
<g>
	<path fill="#FFFFFF" d="M21.547,9.283h6.895L26.9,32.151h-3.897L21.547,9.283z M21.633,37.419c0,0.914,0.328,1.691,0.985,2.334
		c0.656,0.643,1.441,0.964,2.355,0.964c0.913,0,1.698-0.321,2.355-0.964s0.986-1.42,0.986-2.334c0-0.913-0.329-1.698-0.986-2.355
		c-0.657-0.656-1.442-0.985-2.355-0.985c-0.914,0-1.699,0.329-2.355,0.985C21.96,35.721,21.633,36.506,21.633,37.419z"/>
</g>
</svg>
