<?xml version="1.0" encoding="utf-8"?>
<!-- Generator: Adobe Illustrator 17.0.0, SVG Export Plug-In . SVG Version: 6.00 Build 0)  -->
<!DOCTYPE svg PUBLIC "-//W3C//DTD SVG 1.1//EN" "http://www.w3.org/Graphics/SVG/1.1/DTD/svg11.dtd">
<svg version="1.1" id="Layer_1" xmlns="http://www.w3.org/2000/svg" xmlns:xlink="http://www.w3.org/1999/xlink" x="0px" y="0px"
	 width="50px" height="50px" viewBox="0 0 50 50" enable-background="new 0 0 50 50" xml:space="preserve">
<g>
	<path fill="#E2DFD7" d="M48.299,40.581c0,2.75-2.25,5-5,5H5c-2.75,0-5-2.25-5-5V11.78c0-2.75,2.25-5,5-5h38.299c2.75,0,5,2.25,5,5
		V40.581z"/>
</g>
<path fill="#FFFFFF" d="M23.324,27.791"/>
<path fill="#CECBC2" d="M47.893,10.345c0,0-15.859,15.298-23.866,17.327h-0.156C16.666,25.843,2.657,13.072,0,10.563
	c0.108-0.267,1.438-3.896,5.439-3.782h37.463L47.893,10.345z"/>
<path fill="#EEEDE9" d="M48.299,39.578c-0.12,0.934,0.69,3.672-3.018,5.589c-8.761-8.917-20.967-17.523-20.967-17.523
	C32.429,24.854,48.29,7.417,48.29,7.417L48.299,39.578z"/>
<circle fill="#FF6A48" cx="38.715" cy="11.285" r="11.285"/>
</svg>
